<svg xmlns="http://www.w3.org/2000/svg" width="24" height="24" fill="none" viewBox="0 0 24 24"><g clip-path="url(#a)"><path fill="#fff" d="M12 18.11v4.483A8.352 8.352 0 0 1 12 5.89V1.407a8.352 8.352 0 0 1 0 16.703"/><path fill="#ff0420" d="M12 0C5.373 0 0 5.373 0 12s5.373 12 12 12 12-5.373 12-12S18.627 0 12 0m0 18.11v4.483A8.352 8.352 0 0 1 12 5.89V1.407a8.352 8.352 0 0 1 0 16.703m4.132-6.149v.078a8.88 8.88 0 0 0-4.093 4.093h-.078a8.88 8.88 0 0 0-4.093-4.093v-.078a8.88 8.88 0 0 0 4.093-4.093h.078a8.88 8.88 0 0 0 4.093 4.093"/></g><defs><clipPath id="a"><rect width="24" height="24" fill="#fff" rx="12"/></clipPath></defs></svg>